<?xml version="1.0" encoding="utf-8"?>
<!-- Generator: Adobe Illustrator 23.0.5, SVG Export Plug-In . SVG Version: 6.00 Build 0)  -->
<svg version="1.1" id="Layer_1" xmlns="http://www.w3.org/2000/svg" xmlns:xlink="http://www.w3.org/1999/xlink" x="0px" y="0px"
	 viewBox="0 0 174.7 190.2" style="enable-background:new 0 0 174.7 190.2;" xml:space="preserve">
<style type="text/css">
	.st0{fill:#D0D3DA;}
	.st1{opacity:0.33;fill:#D0D3DA;enable-background:new    ;}
	.st2{fill:#FFFFFF;}
	.st3{font-family:'Arial-BoldMT';}
	.st4{font-size:28.7758px;}
	.st5{letter-spacing:1;}
	.st6{fill:#FED434;}
	.st7{fill:#FF9900;}
	.st8{font-family:'Notable-Regular';}
	.st9{font-size:36.06px;}
	.st10{letter-spacing:2;}
	.st11{fill:#000B29;}
	.st12{fill:#4B5F94;}
	.st13{fill:#11204A;}
	.st14{fill:#9BDCFF;}
	.st15{fill:#FD3B96;}
	.st16{fill:#E03485;}
	.st17{font-size:31.9787px;}
</style>
<title>Asset 1</title>
<g>
	<g>
		<g id="OBJECTS">
			<g>
				<ellipse class="st0" cx="87.3" cy="184.6" rx="71.2" ry="5.6"/>
			</g>
			<polygon class="st1" points="103,149.4 168.1,76.9 172.8,79.4 107.9,149.4 			"/>
			<polygon class="st1" points="13,155 30.9,158.7 161.7,15.9 155.9,12.6 			"/>
			<polygon class="st1" points="7.2,133.1 9.7,136.9 139.6,4.8 132.1,0 			"/>
			<text transform="matrix(0.9835 -0.1807 0.1807 0.9835 40.6693 90.0195)" class="st2 st3 st4 st5">L</text>
			<text transform="matrix(0.9835 -0.1807 0.1807 0.9835 55.7222 87.2547)" class="st2 st3 st4">A</text>
			<text transform="matrix(0.9835 -0.1807 0.1807 0.9835 72.5587 84.1623)" class="st2 st3 st4 st5">TEST</text>
			<polygon class="st6" points="33.1,101.8 144.6,74.3 135.5,22.3 32.8,26.8 			"/>
			<text id="ten" transform="matrix(0.9946 -0.1035 0.1035 0.9946 45.48 76.94)" class="st7 st8 st9 st10">TEN</text>
			<text transform="matrix(0.9946 -0.1035 0.1035 0.9946 42.89 75.41)" class="st2 st8 st9 st10">TEN</text>
			<path class="st11" d="M6.8,81.4C0.8,88.5-4.5,102,5.9,108.2c5.2,3.1,11.7,1.4,17.3,0.6c7.8-1.3,15.8-1.5,23.7-0.7
				c13.7,1.8,43.8,15.1,30,33.1c-2.9,3.8-9.4,7.6-8.8,13c0.6,5.1,6.1,7.3,10.3,8.7c0.9,0.3,1.3-1.1,0.4-1.4c-2-0.5-3.9-1.4-5.7-2.4
				c-3.2-2-4.1-6.2-2.1-9.4c0.2-0.2,0.3-0.5,0.5-0.7c2-2.4,4.5-4.4,6.4-6.9c2.6-3.3,4-7,3.5-11.3c-1.3-10.1-11.4-16.9-20-20.4
				c-10.9-4.5-22.9-5-34.5-3.7c-6.9,0.8-16.6,4.3-22.2-1.3c-6.8-6.9-2-17,3-23.1C8.3,81.7,7.3,80.6,6.8,81.4L6.8,81.4z"/>
			<polygon class="st12" points="7.3,76.9 3.5,84.2 7,85.2 11.9,79.5 			"/>
			<polygon class="st13" points="4,78.4 27.6,39 35.2,43.2 12.1,82.6 			"/>
			<polygon class="st14" points="0.1,67.8 13.8,37.1 44.1,53.7 23.7,81.3 			"/>
			<polygon class="st2" points="10.5,56.8 15.8,44.5 27.6,49 17.3,47.9 			"/>
			<path class="st11" d="M21.9,37.3l18.3,9.6c0,0,28.4-24.2,8.5-34.3C30.2,3.2,21.9,37.3,21.9,37.3z"/>
			<path class="st2" d="M33.4,22.6c0,0,4.2-10.8,13.6-7.5C41.9,16.4,37.3,19,33.4,22.6z"/>
			<polygon class="st15" points="25.6,94.2 151.6,71.2 174.7,133.7 30.5,139.2 			"/>
			<text transform="matrix(0.996 -8.963770e-02 8.963770e-02 0.996 37.7196 127.0193)" class="st16 st8 st17 st5">NE</text>
			<text transform="matrix(0.996 -8.963770e-02 8.963770e-02 0.996 88.8795 122.4149)" class="st16 st8 st17">W</text>
			<text transform="matrix(0.996 -8.963770e-02 8.963770e-02 0.996 134.9093 118.2722)" class="st16 st8 st17 st5">S</text>
			<text transform="matrix(0.996 -8.963770e-02 8.963770e-02 0.996 35.1996 125.5091)" class="st2 st8 st17 st5">NE</text>
			<text transform="matrix(0.996 -8.963770e-02 8.963770e-02 0.996 86.3595 120.9047)" class="st2 st8 st17">W</text>
			<text transform="matrix(0.996 -8.963770e-02 8.963770e-02 0.996 132.3893 116.7621)" class="st2 st8 st17 st5">S</text>
		</g>
	</g>
</g>
</svg>
