<svg xmlns="http://www.w3.org/2000/svg" width="19.88" height="19.88" viewBox="0 0 19.88 19.88">
  <path id="Icon_awesome-info-circle" data-name="Icon awesome-info-circle" d="M10.5.563a9.94,9.94,0,1,0,9.94,9.94A9.942,9.942,0,0,0,10.5.563Zm0,4.409A1.683,1.683,0,1,1,8.819,6.655,1.683,1.683,0,0,1,10.5,4.971Zm2.245,10.18a.481.481,0,0,1-.481.481H8.739a.481.481,0,0,1-.481-.481V14.19a.481.481,0,0,1,.481-.481H9.22V11.144H8.739a.481.481,0,0,1-.481-.481V9.7a.481.481,0,0,1,.481-.481H11.3a.481.481,0,0,1,.481.481v4.008h.481a.481.481,0,0,1,.481.481Z" transform="translate(-0.563 -0.563)" fill="#fff"/>
</svg>
