<svg xmlns="http://www.w3.org/2000/svg" width="16.85" height="16.85" viewBox="0 0 16.85 16.85">
  <path id="Icon_metro-headphones" data-name="Icon metro-headphones" d="M7.31,11.406H6.257v7.372H7.31a.528.528,0,0,0,.527-.527V11.933a.528.528,0,0,0-.527-.527Zm7.372,0a.528.528,0,0,0-.527.527v6.319a.528.528,0,0,0,.527.527h1.053V11.406Zm4.739-1.053A8.425,8.425,0,1,0,3.075,13.23,3.687,3.687,0,0,0,5.73,18.74v-7.3a3.663,3.663,0,0,0-1.444.533,6.845,6.845,0,1,1,13.42,0,3.665,3.665,0,0,0-1.444-.533v7.3a3.687,3.687,0,0,0,2.655-5.51,8.409,8.409,0,0,0,.5-2.877Z" transform="translate(-2.571 -1.928)" fill="#fff"/>
</svg>
