<svg xmlns="http://www.w3.org/2000/svg" width="24.602" height="21.996" viewBox="0 0 24.602 21.996">
  <g id="home" transform="translate(1.1 -15.021)">
    <path id="Path_8" data-name="Path 8" d="M56.888,205.265H42.013A2.015,2.015,0,0,1,40,203.252V192.663a.7.7,0,0,1,1.4,0v10.589a.613.613,0,0,0,.613.613H56.888a.613.613,0,0,0,.613-.613V192.663a.7.7,0,0,1,1.4,0v10.589A2.015,2.015,0,0,1,56.888,205.265Z" transform="translate(-38.25 -168.248)"/>
    <path id="Path_9" data-name="Path 9" d="M23.834,28.5a.749.749,0,0,1-.544-.236L13.728,18.245a1.956,1.956,0,0,0-2.854,0L1.313,28.26a.744.744,0,0,1-1.087,0,.832.832,0,0,1,0-1.139L9.787,17.106a3.447,3.447,0,0,1,5.029,0l9.562,10.015a.832.832,0,0,1,0,1.139.749.749,0,0,1-.544.236Z" transform="translate(-1.1 -0.996)"/>
    <path id="Path_10" data-name="Path 10" d="M176.7,297.083a.7.7,0,0,1-.7-.7v-6.213a2.19,2.19,0,0,1,2.188-2.188h2.625A2.19,2.19,0,0,1,183,290.171v6.213Zm.7-1.4h4.2v-5.513a.788.788,0,0,0-.788-.788h-2.625a.788.788,0,0,0-.788.788Z" transform="translate(-168.299 -260.067)"/>
  </g>
</svg>
