<svg xmlns="http://www.w3.org/2000/svg" width="27.073" height="27.006" viewBox="0 0 27.073 27.006">
  <g id="Icon_feather-eye-off" data-name="Icon feather-eye-off" transform="translate(0.621 0.621)">
    <path id="Path_28" data-name="Path 28" d="M19.079,20.028A10.66,10.66,0,0,1,12.915,22.1C5.651,22.1,1.5,14.051,1.5,14.051A18.731,18.731,0,0,1,6.751,8.073m3.985-1.831A9.746,9.746,0,0,1,12.915,6c7.264,0,11.415,8.051,11.415,8.051a18.6,18.6,0,0,1-2.241,3.21m-6.974-1.077a3.176,3.176,0,0,1-3.048.867,3.067,3.067,0,0,1-2.246-2.178,2.96,2.96,0,0,1,.894-2.956" transform="translate(0 -1.169)" fill="none" stroke="rgba(255,255,255,0.7)" stroke-linecap="round" stroke-linejoin="round" stroke-width="3"/>
    <path id="Path_29" data-name="Path 29" d="M1.5,1.5,24.33,24.263" fill="none" stroke="rgba(255,255,255,0.7)" stroke-linecap="round" stroke-linejoin="round" stroke-width="3"/>
  </g>
</svg>
