<svg xmlns="http://www.w3.org/2000/svg" width="23.25" height="23.25" viewBox="0 0 23.25 23.25">
  <g id="Icon_ionic-ios-close-circle-outline" data-name="Icon ionic-ios-close-circle-outline" transform="translate(-3.375 -3.375)">
    <path id="Path_13" data-name="Path 13" d="M23.295,21.705,19.589,18l3.705-3.705a1.124,1.124,0,0,0-1.589-1.589L18,16.411l-3.705-3.705a1.124,1.124,0,0,0-1.589,1.589L16.411,18l-3.705,3.705a1.086,1.086,0,0,0,0,1.589,1.116,1.116,0,0,0,1.589,0L18,19.589l3.705,3.705a1.129,1.129,0,0,0,1.589,0A1.116,1.116,0,0,0,23.295,21.705Z" transform="translate(-2.998 -2.997)" fill="rgba(0,0,0,0.55)"/>
    <path id="Path_14" data-name="Path 14" d="M15,4.94A10.056,10.056,0,1,1,7.885,7.885,9.994,9.994,0,0,1,15,4.94m0-1.565A11.625,11.625,0,1,0,26.625,15,11.623,11.623,0,0,0,15,3.375Z" transform="translate(0 0)" fill="rgba(0,0,0,0.55)"/>
  </g>
</svg>
