<svg xmlns="http://www.w3.org/2000/svg" width="23.016" height="19.552" viewBox="0 0 23.016 19.552">
  <path id="Icon_ionic-ios-share-alt" data-name="Icon ionic-ios-share-alt" d="M25.326,14.1,17.607,6.881A.4.4,0,0,0,17.3,6.75c-.241.011-.547.181-.547.438v3.621a.234.234,0,0,1-.2.224C8.882,12.209,5.649,17.953,4.506,23.916c-.044.235.274.454.421.268,2.8-3.528,6.209-5.831,11.6-5.875a.271.271,0,0,1,.23.263v3.556a.469.469,0,0,0,.793.29L25.32,15.07a.6.6,0,0,0,.191-.46A.733.733,0,0,0,25.326,14.1Z" transform="translate(-3.496 -5.749)" fill="#fff" stroke="#000" stroke-width="2"/>
</svg>
